name C:\Users\u0101727\Documents\MyRepositories\upper-imu-dc\Results\main_mocap_tracking\Case_10\FLX01_orientations_groundFrame.mot
datacolumns 13
datarows 21
range 0.51000000 0.71000000
endheader 
time	radius_imu_[0][0]	radius_imu_[0][1]	radius_imu_[0][2]	radius_imu_[1][0]	radius_imu_[1][1]	radius_imu_[1][2]	radius_imu_[2][0]	radius_imu_[2][1]	radius_imu_[2][2]	radius_imu_x	radius_imu_y	radius_imu_z	
          0.51000000	          0.71900884	         -0.05757971	          0.69261163	         -0.13858309	          0.96467141	          0.22406203	         -0.68104406	         -0.25708685	          0.68562770	         -0.31585763	          0.76510346	          0.07991152	
          0.52000000	          0.70992447	         -0.05900240	          0.70180194	         -0.14123814	          0.96431339	          0.22394526	         -0.68997032	         -0.25810542	          0.67625628	         -0.31978825	          0.77792385	          0.08292025	
          0.53000000	          0.69910131	         -0.06128853	          0.71239110	         -0.14410889	          0.96379721	          0.22433804	         -0.70034990	         -0.25949691	          0.66495967	         -0.32537995	          0.79289952	          0.08744403	
          0.54000000	          0.68737338	         -0.06427947	          0.72345421	         -0.14685910	          0.96320051	          0.22511591	         -0.71130180	         -0.26098452	          0.65263836	         -0.33215286	          0.80879269	          0.09324346	
          0.55000000	          0.67631057	         -0.06744138	          0.73352278	         -0.14928314	          0.96258742	          0.22614157	         -0.72133110	         -0.26244452	          0.64094019	         -0.33919186	          0.82349067	          0.09939096	
          0.56000000	          0.67144101	         -0.06860902	          0.73787518	         -0.15139596	          0.96200468	          0.22721411	         -0.72542831	         -0.26427219	          0.63554227	         -0.34335146	          0.82991674	          0.10182833	
          0.57000000	          0.66713339	         -0.07010460	          0.74163224	         -0.15292117	          0.96147171	          0.22844531	         -0.72907349	         -0.26581476	          0.63070941	         -0.34750511	          0.83550035	          0.10469908	
          0.58000000	          0.66429139	         -0.07201399	          0.74399660	         -0.15353312	          0.96097914	          0.23010142	         -0.73153573	         -0.26708251	          0.62731364	         -0.35156623	          0.83903189	          0.10798553	
          0.59000000	          0.66271275	         -0.07457420	          0.74515132	         -0.15314061	          0.96050667	          0.23232496	         -0.73304827	         -0.26807764	          0.62511968	         -0.35582938	          0.84076172	          0.11205730	
          0.60000000	          0.66263214	         -0.07772990	          0.74490047	         -0.15174444	          0.96003706	          0.23516475	         -0.73341139	         -0.26886223	          0.62435634	         -0.36021777	          0.84038564	          0.11677110	
          0.61000000	          0.66436596	         -0.08136026	          0.74296593	         -0.14934895	          0.95955808	          0.23862770	         -0.73233378	         -0.26949730	          0.62534666	         -0.36453798	          0.83749073	          0.12185626	
          0.62000000	          0.66819522	         -0.08536566	          0.73907229	         -0.14592865	          0.95906051	          0.24270922	         -0.72953408	         -0.27002896	          0.62838236	         -0.36859222	          0.83169213	          0.12706724	
          0.63000000	          0.67429783	         -0.08969478	          0.73299200	         -0.14143146	          0.95853542	          0.24740045	         -0.72478933	         -0.27048972	          0.63365269	         -0.37223395	          0.82271006	          0.13224320	
          0.64000000	          0.68267482	         -0.09434427	          0.72460627	         -0.13581006	          0.95797112	          0.25267956	         -0.71799075	         -0.27090679	          0.64116986	         -0.37540244	          0.81046291	          0.13732811	
          0.65000000	          0.69308327	         -0.09934548	          0.71397903	         -0.12906743	          0.95735042	          0.25849906	         -0.70920884	         -0.27131281	          0.65070130	         -0.37814403	          0.79516484	          0.14236870	
          0.66000000	          0.70500913	         -0.10474687	          0.70142015	         -0.12129859	          0.95664923	          0.26478085	         -0.69874801	         -0.27175419	          0.66174079	         -0.38061649	          0.77738805	          0.14749620	
          0.67000000	          0.71771063	         -0.11059551	          0.68750279	         -0.11271099	          0.95583728	          0.27142463	         -0.68715914	         -0.27229346	          0.67354925	         -0.38306983	          0.75804461	          0.15289227	
          0.68000000	          0.73033293	         -0.11692027	          0.67301075	         -0.10361385	          0.95488106	          0.27832773	         -0.67518737	         -0.27300514	          0.68526653	         -0.38580526	          0.73827188	          0.15874471	
          0.69000000	          0.74205452	         -0.12372062	          0.65882342	         -0.09437923	          0.95374807	          0.28540703	         -0.66366230	         -0.27396682	          0.69605641	         -0.38912663	          0.71925371	          0.16520751	
          0.70000000	          0.75220876	         -0.13096603	          0.64577851	         -0.08538858	          0.95241070	          0.29261347	         -0.65336879	         -0.27524853	          0.70522867	         -0.39330190	          0.70204247	          0.17238065	
          0.71000000	          0.76034225	         -0.13860629	          0.63456124	         -0.07698262	          0.95084859	          0.29993439	         -0.64494445	         -0.27690297	          0.71230008	         -0.39854458	          0.68744069	          0.18031464	
